<?xml version="1.0" standalone="no"?><!DOCTYPE svg PUBLIC "-//W3C//DTD SVG 1.1//EN" "http://www.w3.org/Graphics/SVG/1.1/DTD/svg11.dtd"><svg t="1737279966257" class="icon" viewBox="0 0 1061 1024" version="1.1" xmlns="http://www.w3.org/2000/svg" p-id="4406" width="16.578125" height="16" xmlns:xlink="http://www.w3.org/1999/xlink"><path d="M404.54321 619.45679m-404.54321 0a404.54321 404.54321 0 1 0 809.08642 0 404.54321 404.54321 0 1 0-809.08642 0Z" fill="#EDF6FF" p-id="4407"></path><path d="M662.136099 657.382716C457.222321 657.382716 252.839506 733.234568 252.839506 733.234568V0s205.444741 75.851852 410.864198 75.851852S1061.925926 0 1061.925926 0v733.234568s-193.839407-75.851852-399.789827-75.851852zM1011.358025 75.851852a1435.761778 1435.761778 0 0 1-349.537976 50.567901C483.365926 126.419753 303.407407 75.851852 303.407407 75.851852v581.530864s181.551407-50.567901 360.776692-50.567901A1413.208494 1413.208494 0 0 1 1011.358025 657.382716V75.851852z" fill="#040405" p-id="4408"></path><path d="M670.024691 480.395062c-82.665877 0-240.197531 25.283951-240.197531 25.28395l113.777778-176.987654 88.493827 75.851852 113.777778-126.419753 139.061729 214.91358s-132.247704-12.641975-214.913581-12.641975zM442.469136 316.049383a37.925926 37.925926 0 1 1 37.925926-37.925926 37.925926 37.925926 0 0 1-37.925926 37.925926z" fill="#2394FB" p-id="4409"></path></svg>